<svg width="32" height="32" viewBox="0 0 32 32" fill="none" xmlns="http://www.w3.org/2000/svg">
<g transform="translate(1.5008, 5.5008)">
<path d="M26.5 0H2.5C1.83696 0 1.20107 0.263392 0.732233 0.732233C0.263392 1.20107 0 1.83696 0 2.5V18.5C0 19.163 0.263392 19.7989 0.732233 20.2678C1.20107 20.7366 1.83696 21 2.5 21H26.5C27.163 21 27.7989 20.7366 28.2678 20.2678C28.7366 19.7989 29 19.163 29 18.5V2.5C29 1.83696 28.7366 1.20107 28.2678 0.732233C27.7989 0.263392 27.163 0 26.5 0ZM26 18H3V3H26V18ZM5 10.5C4.99989 9.5345 5.25395 8.58598 5.73663 7.74979C6.21931 6.9136 6.91361 6.2192 7.74974 5.7364C8.58586 5.2536 9.53434 4.99942 10.4998 4.99939C11.4654 4.99936 12.4138 5.2535 13.25 5.73625C13.5868 5.939 13.8305 6.26585 13.9287 6.64646C14.0269 7.02707 13.9719 7.43104 13.7753 7.77144C13.5787 8.11185 13.2564 8.36148 12.8776 8.46665C12.4988 8.57181 12.0939 8.52408 11.75 8.33375C11.3699 8.11479 10.9389 7.99969 10.5003 8C10.0616 8.00031 9.6308 8.11603 9.25103 8.33553C8.87126 8.55503 8.55593 8.87059 8.3367 9.25051C8.11747 9.63044 8.00206 10.0614 8.00206 10.5C8.00206 10.9386 8.11747 11.3696 8.3367 11.7495C8.55593 12.1294 8.87126 12.445 9.25103 12.6645C9.6308 12.884 10.0616 12.9997 10.5003 13C10.9389 13.0003 11.3699 12.8852 11.75 12.6663C11.9208 12.5601 12.1111 12.4893 12.3098 12.4581C12.5084 12.427 12.7113 12.4361 12.9064 12.4849C13.1014 12.5337 13.2847 12.6213 13.4453 12.7423C13.6058 12.8634 13.7404 13.0155 13.841 13.1896C13.9416 13.3637 14.0061 13.5563 14.0308 13.7558C14.0555 13.9554 14.0398 14.1579 13.9847 14.3513C13.9296 14.5447 13.8361 14.725 13.7099 14.8815C13.5837 15.038 13.4273 15.1676 13.25 15.2625C12.4139 15.7452 11.4656 15.9993 10.5002 15.9994C9.53476 15.9994 8.58636 15.7453 7.75028 15.2627C6.91419 14.78 6.21987 14.0858 5.7371 13.2498C5.25433 12.4138 5.00011 11.4654 5 10.5ZM15 10.5C14.9999 9.5345 15.2539 8.58598 15.7366 7.74979C16.2193 6.9136 16.9136 6.2192 17.7497 5.7364C18.5859 5.2536 19.5343 4.99942 20.4998 4.99939C21.4654 4.99936 22.4138 5.2535 23.25 5.73625C23.5868 5.939 23.8305 6.26585 23.9287 6.64646C24.0269 7.02707 23.9719 7.43104 23.7753 7.77144C23.5787 8.11185 23.2564 8.36148 22.8776 8.46665C22.4988 8.57181 22.0939 8.52408 21.75 8.33375C21.3699 8.11479 20.9389 7.99969 20.5003 8C20.0616 8.00031 19.6308 8.11603 19.251 8.33553C18.8713 8.55503 18.5559 8.87059 18.3367 9.25051C18.1175 9.63044 18.0021 10.0614 18.0021 10.5C18.0021 10.9386 18.1175 11.3696 18.3367 11.7495C18.5559 12.1294 18.8713 12.445 19.251 12.6645C19.6308 12.884 20.0616 12.9997 20.5003 13C20.9389 13.0003 21.3699 12.8852 21.75 12.6663C21.9208 12.5601 22.1111 12.4893 22.3098 12.4581C22.5084 12.427 22.7113 12.4361 22.9064 12.4849C23.1014 12.5337 23.2847 12.6213 23.4453 12.7423C23.6058 12.8634 23.7404 13.0155 23.841 13.1896C23.9416 13.3637 24.0061 13.5563 24.0308 13.7558C24.0555 13.9554 24.0398 14.1579 23.9847 14.3513C23.9296 14.5447 23.8361 14.725 23.7099 14.8815C23.5837 15.038 23.4273 15.1676 23.25 15.2625C22.4139 15.7452 21.4656 15.9993 20.5002 15.9994C19.5348 15.9994 18.5864 15.7453 17.7503 15.2627C16.9142 14.78 16.2199 14.0858 15.7371 13.2498C15.2543 12.4138 15.0001 11.4654 15 10.5Z" fill="white" fill-opacity="0.95"/>
</g>
</svg>
