<svg width="32" height="32" viewBox="0 0 32 32" fill="none" xmlns="http://www.w3.org/2000/svg">
<g transform="translate(2.0, 6.0)">
<path d="M26 0H2C1.46957 0 0.960859 0.210714 0.585786 0.585786C0.210714 0.960859 0 1.46957 0 2V18C0 18.5304 0.210714 19.0391 0.585786 19.4142C0.960859 19.7893 1.46957 20 2 20H26C26.5304 20 27.0391 19.7893 27.4142 19.4142C27.7893 19.0391 28 18.5304 28 18V2C28 1.46957 27.7893 0.960859 27.4142 0.585786C27.0391 0.210714 26.5304 0 26 0ZM12.5 14.33C11.7399 14.7689 10.8777 15 9.99997 15C9.12227 15 8.26002 14.769 7.49989 14.3302C6.73976 13.8914 6.10855 13.2602 5.66968 12.5001C5.23082 11.7399 4.99978 10.8777 4.99978 10C4.99978 9.1223 5.23082 8.26005 5.66968 7.49994C6.10855 6.73984 6.73976 6.10864 7.49989 5.66981C8.26002 5.23098 9.12227 4.99997 9.99997 5C10.8777 5.00003 11.7399 5.23111 12.5 5.67C12.6174 5.73372 12.7208 5.82031 12.8041 5.92464C12.8875 6.02897 12.9491 6.14894 12.9853 6.27747C13.0215 6.406 13.0316 6.54049 13.0151 6.67299C12.9985 6.80549 12.9555 6.93334 12.8887 7.04897C12.8219 7.1646 12.7327 7.26569 12.6262 7.34626C12.5197 7.42683 12.3981 7.48526 12.2687 7.5181C12.1392 7.55093 12.0045 7.55751 11.8725 7.53744C11.7405 7.51737 11.6138 7.47106 11.5 7.40125C11.0439 7.13821 10.5267 6.99982 10.0002 7C9.47366 7.00018 8.95648 7.13891 8.50058 7.40226C8.04468 7.66561 7.66612 8.0443 7.40292 8.50029C7.13973 8.95628 7.00117 9.4735 7.00117 10C7.00117 10.5265 7.13973 11.0437 7.40292 11.4997C7.66612 11.9557 8.04468 12.3344 8.50058 12.5977C8.95648 12.8611 9.47366 12.9998 10.0002 13C10.5267 13.0002 11.0439 12.8618 11.5 12.5987C11.7291 12.4744 11.9976 12.4443 12.2485 12.5151C12.4994 12.5858 12.7128 12.7517 12.8431 12.9774C12.9735 13.2031 13.0106 13.4708 12.9465 13.7234C12.8824 13.9761 12.7222 14.1937 12.5 14.33ZM22.5 14.33C21.7399 14.7689 20.8777 15 20 15C19.1223 15 18.26 14.769 17.4999 14.3302C16.7398 13.8914 16.1085 13.2602 15.6697 12.5001C15.2308 11.7399 14.9998 10.8777 14.9998 10C14.9998 9.1223 15.2308 8.26005 15.6697 7.49994C16.1085 6.73984 16.7398 6.10864 17.4999 5.66981C18.26 5.23098 19.1223 4.99997 20 5C20.8777 5.00003 21.7399 5.23111 22.5 5.67C22.6174 5.73372 22.7208 5.82031 22.8041 5.92464C22.8875 6.02897 22.9491 6.14894 22.9853 6.27747C23.0215 6.406 23.0316 6.54049 23.0151 6.67299C22.9985 6.80549 22.9555 6.93334 22.8887 7.04897C22.8219 7.1646 22.7327 7.26569 22.6262 7.34626C22.5197 7.42683 22.3981 7.48526 22.2687 7.5181C22.1392 7.55093 22.0045 7.55751 21.8725 7.53744C21.7405 7.51737 21.6138 7.47106 21.5 7.40125C21.0439 7.13821 20.5267 6.99982 20.0002 7C19.4737 7.00018 18.9565 7.13891 18.5006 7.40226C18.0447 7.66561 17.6661 8.0443 17.4029 8.50029C17.1397 8.95628 17.0012 9.4735 17.0012 10C17.0012 10.5265 17.1397 11.0437 17.4029 11.4997C17.6661 11.9557 18.0447 12.3344 18.5006 12.5977C18.9565 12.8611 19.4737 12.9998 20.0002 13C20.5267 13.0002 21.0439 12.8618 21.5 12.5987C21.7291 12.4744 21.9976 12.4443 22.2485 12.5151C22.4994 12.5858 22.7128 12.7517 22.8431 12.9774C22.9735 13.2031 23.0106 13.4708 22.9465 13.7234C22.8824 13.9761 22.7222 14.1937 22.5 14.33Z" fill="white" fill-opacity="0.95"/>
</g>
</svg>
