<svg width="32" height="32" viewBox="0 0 32 32" fill="none" xmlns="http://www.w3.org/2000/svg">
<g transform="translate(1.3344 8.8768)">
<path d="M2.05311 0C2.21092 0.0327083 2.51296 0.439312 2.60446 0.576958C3.15884 1.41094 3.76967 2.13085 4.47102 2.84117C5.30934 3.70279 6.22827 4.4821 7.21523 5.16844C7.31242 4.60829 7.32361 3.95838 7.45686 3.38246C7.67398 2.44408 8.23396 1.72556 9.04592 1.22675C9.63959 0.862042 10.1359 0.813104 10.8159 0.719729C11.0194 0.691771 11.3261 0.634604 11.5226 0.628042C11.9456 0.613938 12.3816 0.617709 12.8058 0.615875C13.1694 0.614292 13.551 0.609104 13.9135 0.621521C14.1445 0.629438 14.4172 0.697188 14.6656 0.713458C15.4038 0.761854 16.1708 0.836896 16.8968 0.982813C17.1218 1.02804 17.4161 1.179 17.6333 1.27379C18.6926 1.73633 19.7938 2.51246 20.4544 3.47106C20.6293 3.72473 20.8858 4.18383 21.0326 4.46752C21.1495 4.69346 21.2328 5.00471 21.3645 5.22781C21.3772 5.24937 21.3864 5.26919 21.4062 5.26792C21.651 5.25231 22.1122 4.86585 22.2843 4.73281C23.4378 3.84156 24.496 2.85867 25.4316 1.74042C25.572 1.57277 25.706 1.35477 25.8322 1.17254C25.9235 1.04067 26.0912 0.850125 26.1655 0.727938C26.3239 0.468271 26.437 0.291375 26.6899 0.107292C26.7403 0.0705627 26.8685 -0.00224989 26.9297 0.0212084C27.3358 0.176833 27.6522 0.807042 27.8408 1.15598C28.2647 1.94175 28.2491 3.26415 27.9905 4.09879C27.9433 4.2519 27.7787 4.54923 27.7045 4.7121C27.6135 4.91238 27.5603 5.07171 27.491 5.27912C27.7516 5.17046 27.9718 5.00525 28.2608 4.96252C28.6993 4.89769 28.8576 5.39106 28.8816 5.74408C28.9755 7.12596 28.6022 8.50454 27.7166 9.58325C27.4697 9.92304 27.2424 10.1959 26.9468 10.4794C26.8443 10.5778 26.3941 10.9529 26.3962 11.0167C26.4133 11.5683 26.7903 11.85 26.5099 12.4843C26.1251 13.3551 25.1908 14.0425 24.3303 14.3864C23.7426 14.59 22.8793 14.5818 22.2876 14.402C21.9578 14.3018 21.4387 14.1157 21.1383 13.9784C20.7224 14.554 20.452 15.2879 20.0289 15.7952C19.4789 16.4548 18.7411 17.0717 17.8496 17.1146C17.4012 17.1363 16.9287 17.1336 16.475 17.1386C15.3847 17.1496 14.2943 17.1476 13.204 17.1324L11.2658 17.1169C10.8769 17.1119 10.3511 17.1155 9.98096 17.0517C9.54969 16.9771 8.85157 16.6868 8.52363 16.3901C7.75219 15.6922 7.49594 15.1684 7.42102 14.1492C7.40798 14.1549 7.3949 14.1605 7.38175 14.166C6.41707 14.5685 5.46746 14.7276 4.45444 14.3133C3.61427 13.9697 2.78084 13.4178 2.38105 12.5567C2.15075 12.0608 2.38209 11.4937 2.58282 11.0185C2.42963 10.8682 2.17155 10.6888 1.99971 10.5316C1.54044 10.1114 0.942939 9.42371 0.66306 8.87277C0.237182 8.03446 -0.0172134 7.10267 0.000907448 6.16198C0.00469078 5.90588 -0.0193238 5.61071 0.0713241 5.36531C0.319405 4.69373 0.914543 5.04892 1.35791 5.20494C1.1778 4.77473 0.783335 3.95148 0.757097 3.51169C0.728507 3.03244 0.668768 2.01798 0.838926 1.58562C1.05875 1.02708 1.493 0.255396 2.05311 0ZM15.5721 11.4998C16.0914 11.1168 16.6066 10.7283 17.1179 10.3346C17.3475 10.1556 17.6037 9.97921 17.8004 9.76573C18.0281 9.51858 18.2574 9.04144 18.0138 8.73917C17.3243 7.88352 16.3571 7.27721 15.5455 6.54446C15.0037 6.05456 14.4662 5.57408 13.8925 5.12612C13.7004 4.97617 13.3981 4.80565 13.1556 4.77198C13.119 4.76696 13.0821 4.7641 13.0452 4.76348C11.524 4.86563 11.6236 5.66792 11.6225 6.90833L11.6221 8.33975L11.623 10.0589C11.6234 10.4565 11.6154 10.84 11.6464 11.241C11.6874 11.7722 11.8425 11.9555 12.2187 12.2938C12.633 12.6663 13.0682 12.7236 13.6219 12.6732C13.7572 12.6621 13.8898 12.6283 14.0139 12.5731C14.2905 12.4472 15.3128 11.7234 15.5721 11.4998Z" fill="#27C58B"/>
</g>
<g transform="translate(10.0256 5.3344)">
<path d="M5.83062 0.015994L5.83995 0.0150232C6.15181 -0.0144873 6.48839 0.00862732 6.80235 0.00835857C7.72518 0.00756898 9.77295 -0.00766226 10.4888 0.610669C10.6339 0.736063 10.7468 0.929936 10.7621 1.12309C10.7775 1.31775 10.6716 1.50066 10.5485 1.64294C9.75283 2.56196 6.18822 2.88708 4.96164 2.97444C4.9257 2.97996 4.88966 2.98477 4.85356 2.98889C4.61556 3.01577 3.43839 3.05702 3.16279 3.02146C2.24812 2.89089 1.07329 2.93248 0.278954 2.43312C-0.0407547 2.23217 -0.101088 1.63267 0.178662 1.37611C1.03941 0.586863 2.39533 0.4854 3.49497 0.279523C4.26418 0.135513 5.05024 0.0724253 5.83062 0.015994ZM2.38945 1.624C2.30241 1.66675 2.28283 1.65878 2.23812 1.72859C2.28627 1.78435 2.45022 1.81098 2.53825 1.84296C3.49458 2.01398 4.76233 1.88925 5.72785 1.78735C6.53431 1.70225 7.31704 1.60998 8.10997 1.43108C8.2521 1.36703 8.35691 1.36466 8.50075 1.28953C8.26158 1.17366 6.19843 1.17668 5.79558 1.16982C4.83537 1.18952 3.71112 1.28571 2.77777 1.52103C2.69741 1.54129 2.44339 1.59948 2.38945 1.624Z" fill="#27C58B"/>
</g>
</svg>
