<svg width="32" height="32" viewBox="0 0 32 32" fill="none" xmlns="http://www.w3.org/2000/svg">
<g transform="translate(12.4992, 10.0)">
<path d="M9.32875 6.69684C9.4413 6.48196 9.50007 6.24299 9.5 6.00042C9.50007 5.75784 9.4413 5.51887 9.32875 5.30399C9.21619 5.08911 9.0532 4.90473 8.85375 4.76667L2.35375 0.266667C2.12866 0.110851 1.86521 0.0196074 1.59197 0.00282248C1.31872 -0.0139624 1.04609 0.0443518 0.80362 0.171446C0.561149 0.298541 0.358083 0.48957 0.216426 0.723832C0.0747692 0.958094 -7.59493e-05 1.22666 5.78327e-08 1.50042V10.5004C-7.59493e-05 10.7742 0.0747692 11.0427 0.216426 11.277C0.358083 11.5113 0.561149 11.7023 0.80362 11.8294C1.04609 11.9565 1.31872 12.0148 1.59197 11.998C1.86521 11.9812 2.12866 11.89 2.35375 11.7342L8.85375 7.23417C9.0532 7.0961 9.21619 6.91172 9.32875 6.69684Z" fill="white" fill-opacity="0.95"/>
</g>
<g transform="translate(19.0016, 21.5008)">
<path d="M3.30222 0C3.73986 0 4.13772 0.0637253 4.49579 0.191176C4.85386 0.315273 5.17381 0.47291 5.45562 0.664087C5.73744 0.855263 5.98444 1.05147 6.19663 1.25271C6.25963 1.31308 6.31268 1.36507 6.35578 1.40867C6.39888 1.44892 6.44529 1.49587 6.49503 1.54954C6.54144 1.49587 6.58952 1.44556 6.63925 1.39861C6.68898 1.35165 6.73871 1.30302 6.78845 1.25271C7.11668 0.944144 7.52448 0.659056 8.01186 0.397446C8.50255 0.132482 9.06121 0 9.68783 0C10.2979 0 10.8532 0.147575 11.3539 0.442724C11.8545 0.737874 12.254 1.13364 12.5524 1.63003C12.8508 2.12307 13 2.66473 13 3.25503C13 3.70111 12.9138 4.12036 12.7414 4.51277C12.5723 4.90519 12.3352 5.25065 12.0302 5.54915C11.7252 5.84765 11.3721 6.08075 10.9709 6.24845C10.5731 6.41615 10.1454 6.5 9.68783 6.5C9.25682 6.5 8.86394 6.43963 8.50918 6.31889C8.15774 6.19814 7.84111 6.04721 7.5593 5.8661C7.2808 5.68163 7.03545 5.49213 6.82326 5.2976C6.74369 5.22717 6.68069 5.17015 6.63428 5.12655C6.58786 5.08295 6.54144 5.03431 6.49503 4.98065C6.43866 5.04438 6.38727 5.09804 6.34086 5.14164C6.29776 5.18189 6.24471 5.23388 6.18171 5.2976C5.97947 5.47872 5.73744 5.66318 5.45562 5.85101C5.17712 6.03548 4.85718 6.18976 4.49579 6.31385C4.13772 6.43795 3.73986 6.5 3.30222 6.5C2.6988 6.5 2.14677 6.3541 1.64614 6.06231C1.1455 5.76716 0.745983 5.37474 0.44759 4.88506C0.149197 4.39538 0 3.85204 0 3.25503C0 2.81231 0.0862025 2.39474 0.258607 2.00232C0.431013 1.60991 0.668069 1.26445 0.969778 0.965944C1.2748 0.664086 1.62624 0.427631 2.0241 0.256579C2.42527 0.0855263 2.85131 0 3.30222 0ZM2.10865 3.25503C2.10865 3.46633 2.16169 3.65751 2.26779 3.82856C2.3772 3.99961 2.52142 4.13545 2.70046 4.23607C2.88281 4.33669 3.0834 4.387 3.30222 4.387C3.5774 4.387 3.82938 4.33333 4.05815 4.22601C4.28692 4.11533 4.51237 3.96104 4.73451 3.76316C4.85055 3.65919 4.94504 3.5636 5.01798 3.47639C5.09092 3.38584 5.14894 3.31205 5.19204 3.25503C5.14231 3.19131 5.06274 3.1041 4.95333 2.99342C4.84723 2.88274 4.77429 2.80728 4.73451 2.76703C4.53889 2.58591 4.32007 2.43163 4.07804 2.30418C3.83601 2.17673 3.5774 2.113 3.30222 2.113C3.0834 2.113 2.88281 2.16667 2.70046 2.27399C2.52142 2.37797 2.3772 2.51716 2.26779 2.69156C2.16169 2.86262 2.10865 3.05044 2.10865 3.25503ZM10.8814 3.25503C10.8814 3.05044 10.8284 2.86262 10.7223 2.69156C10.6162 2.51716 10.4719 2.37797 10.2896 2.27399C10.1106 2.16667 9.90997 2.113 9.68783 2.113C9.50217 2.113 9.32313 2.14319 9.15073 2.20356C8.98164 2.26393 8.82249 2.34443 8.6733 2.44505C8.5241 2.54567 8.38982 2.65299 8.27047 2.76703C8.21079 2.8274 8.13122 2.90957 8.03175 3.01354C7.9356 3.11416 7.86266 3.19466 7.81293 3.25503C7.86929 3.33888 7.93395 3.42105 8.00689 3.50155C8.07983 3.58204 8.16769 3.66925 8.27047 3.76316C8.47603 3.95098 8.69485 4.10191 8.92693 4.21594C9.15902 4.32998 9.41265 4.387 9.68783 4.387C9.90997 4.387 10.1106 4.33669 10.2896 4.23607C10.4719 4.13545 10.6162 3.99961 10.7223 3.82856C10.8284 3.65751 10.8814 3.46633 10.8814 3.25503Z" fill="white" fill-opacity="0.95"/>
</g>
<g transform="translate(2.5, 2.496)">
<path d="M12.4063 0.0441582C15.0922 -0.173892 17.7792 0.419356 20.1241 1.74045C20.1341 1.74609 20.1444 1.75138 20.1544 1.75705L20.3106 1.84494C20.3808 1.88595 20.4493 1.92968 20.5187 1.97189C20.5385 1.98397 20.5584 1.99585 20.5782 2.00803C20.6954 2.0802 20.8112 2.15414 20.9259 2.22971C20.9324 2.23398 20.9389 2.23812 20.9454 2.2424C21.0629 2.32014 21.1792 2.39945 21.294 2.48068C21.326 2.50331 21.3579 2.52612 21.3897 2.54904C21.7938 2.84017 22.18 3.15308 22.5479 3.48556C22.5911 3.5245 22.6343 3.56329 22.6769 3.60275C22.7365 3.65805 22.796 3.7134 22.8546 3.76974C22.9037 3.81697 22.9517 3.86536 23.0001 3.9133C23.0788 3.99126 23.1568 4.06977 23.2335 4.14963C23.2993 4.21806 23.3645 4.2869 23.4288 4.35666C23.4808 4.41313 23.5321 4.47021 23.5831 4.52756C23.6342 4.58496 23.6844 4.64314 23.7345 4.70138C23.7838 4.75882 23.8335 4.81597 23.8819 4.87424C23.9256 4.92675 23.968 4.98026 24.0108 5.03342C24.0981 5.14178 24.1837 5.25144 24.2677 5.36252C24.3103 5.41892 24.3529 5.47538 24.3946 5.53244C24.4392 5.5934 24.4839 5.6543 24.5274 5.71603C24.5669 5.77187 24.6051 5.82855 24.6437 5.88498C24.7079 5.97895 24.7712 6.0735 24.8331 6.16916C24.89 6.2571 24.9462 6.34551 25.0011 6.43478C25.0274 6.47759 25.0534 6.52057 25.0792 6.56369C25.1288 6.64638 25.1769 6.72992 25.2247 6.81369C25.2537 6.86446 25.2833 6.91485 25.3116 6.96603C25.3686 7.06895 25.4233 7.1731 25.4776 7.27756C25.5188 7.35684 25.5591 7.43662 25.5987 7.51681C25.626 7.57202 25.6542 7.62723 25.6808 7.68283C25.6845 7.69076 25.6869 7.69929 25.6905 7.70724C25.7129 7.7543 25.7371 7.80052 25.7589 7.84787C25.9344 7.49812 26.2396 7.23055 26.6095 7.10275C26.9795 6.975 27.3853 6.99723 27.7394 7.16428C28.0934 7.33132 28.3683 7.63043 28.505 7.99728C28.6415 8.36398 28.629 8.76929 28.4708 9.12717V9.12619L26.9874 12.3362C26.9049 12.5154 26.7876 12.6768 26.6427 12.8108C26.4978 12.9446 26.3278 13.0483 26.1427 13.1164C25.9575 13.1846 25.7607 13.2163 25.5636 13.2082C25.3663 13.2001 25.1723 13.1527 24.9933 13.0695L21.7843 11.5862C21.4235 11.4334 21.1368 11.1458 20.9854 10.7844C20.8341 10.4229 20.8303 10.0168 20.9747 9.65256C21.1191 9.2883 21.4 8.99477 21.7579 8.83517C22.1028 8.68143 22.492 8.66476 22.8487 8.78537C22.8292 8.7527 22.8097 8.71979 22.7921 8.68576C22.142 7.43198 21.2422 6.3172 20.1427 5.41428C18.6508 4.18924 16.8487 3.40096 14.9366 3.13596C13.0246 2.87105 11.0764 3.14017 9.30771 3.9133C7.53906 4.6865 6.01819 5.93343 4.91416 7.51681C3.81018 9.10016 3.16589 10.9581 3.05185 12.885C2.93788 14.8119 3.35899 16.7332 4.26865 18.4358C5.17841 20.1384 6.54179 21.5561 8.20713 22.5324C9.4344 23.2519 10.7904 23.7113 12.1915 23.8879C13.0225 23.9926 13.7181 24.6471 13.7345 25.4846C13.7508 26.322 13.0831 27.0231 12.2491 26.9455C10.2875 26.763 8.38313 26.1522 6.67295 25.1496C4.52502 23.8904 2.76725 22.0614 1.59385 19.8654C0.420437 17.6694 -0.123471 15.1918 0.0235329 12.7063C0.0766652 11.8079 0.219738 10.9213 0.447361 10.0588C0.457766 10.0051 0.472091 9.9521 0.488377 9.89963C1.22612 7.23379 2.76489 4.85855 4.89658 3.09592C7.02816 1.33349 9.64959 0.268009 12.4063 0.0441582Z" fill="white" fill-opacity="0.95"/>
</g>
</svg>
