<svg width="32" height="32" viewBox="0 0 32 32" fill="none" xmlns="http://www.w3.org/2000/svg">
<g transform="translate(2.5, 2.5)">
<path d="M18.1588 0.152428C17.9065 0.0290868 17.6246 -0.0209568 17.3453 0.00799231C17.066 0.0369415 16.8004 0.143721 16.5788 0.316179L7.985 6.99993H2.5C1.83696 6.99993 1.20107 7.26332 0.732233 7.73216C0.263392 8.201 0 8.83689 0 9.49993V17.4999C0 18.163 0.263392 18.7989 0.732233 19.2677C1.20107 19.7365 1.83696 19.9999 2.5 19.9999H7.985L16.5788 26.6837C16.8004 26.8562 17.066 26.963 17.3453 26.9919C17.6247 27.0209 17.9065 26.9708 18.1588 26.8475C18.4111 26.7241 18.6237 26.5324 18.7724 26.2942C18.9212 26.056 19 25.7808 19 25.4999V1.49993C19 1.21909 18.9211 0.943899 18.7724 0.705675C18.6237 0.467451 18.4111 0.275763 18.1588 0.152428ZM16 22.4337L9.42125 17.3162C9.1579 17.1112 8.83371 16.9999 8.5 16.9999H3V9.99993H8.5C8.83371 9.99992 9.1579 9.88864 9.42125 9.68368L16 4.56743V22.4337ZM24 10.4999V16.4999C24 16.8978 23.842 17.2793 23.5607 17.5606C23.2794 17.8419 22.8978 17.9999 22.5 17.9999C22.1022 17.9999 21.7206 17.8419 21.4393 17.5606C21.158 17.2793 21 16.8978 21 16.4999V10.4999C21 10.1021 21.158 9.72057 21.4393 9.43927C21.7206 9.15796 22.1022 8.99993 22.5 8.99993C22.8978 8.99993 23.2794 9.15796 23.5607 9.43927C23.842 9.72057 24 10.1021 24 10.4999ZM28.5 8.49993V18.4999C28.5 18.8978 28.342 19.2793 28.0607 19.5606C27.7794 19.8419 27.3978 19.9999 27 19.9999C26.6022 19.9999 26.2206 19.8419 25.9393 19.5606C25.658 19.2793 25.5 18.8978 25.5 18.4999V8.49993C25.5 8.1021 25.658 7.72057 25.9393 7.43927C26.2206 7.15796 26.6022 6.99993 27 6.99993C27.3978 6.99993 27.7794 7.15796 28.0607 7.43927C28.342 7.72057 28.5 8.1021 28.5 8.49993Z" fill="white" fill-opacity="0.95"/>
</g>
</svg>
