<svg width="32" height="32" viewBox="0 0 32 32" fill="none" xmlns="http://www.w3.org/2000/svg">
<g transform="translate(2.5, 2.5)">
<path d="M28.5 8.49999V18.5C28.5 18.8978 28.342 19.2793 28.0607 19.5606C27.7794 19.842 27.3978 20 27 20C26.6022 20 26.2206 19.842 25.9393 19.5606C25.658 19.2793 25.5 18.8978 25.5 18.5V8.49999C25.5 8.10216 25.658 7.72063 25.9393 7.43933C26.2206 7.15802 26.6022 6.99999 27 6.99999C27.3978 6.99999 27.7794 7.15802 28.0607 7.43933C28.342 7.72063 28.5 8.10216 28.5 8.49999ZM25.61 23.4912C25.7453 23.6365 25.8503 23.8072 25.9191 23.9934C25.9879 24.1796 26.0191 24.3776 26.0108 24.5759C26.0025 24.7742 25.9549 24.9689 25.8708 25.1487C25.7868 25.3286 25.6678 25.4899 25.5209 25.6234C25.374 25.7569 25.2021 25.8599 25.0151 25.9264C24.8281 25.993 24.6297 26.0218 24.4315 26.0111C24.2333 26.0005 24.0392 25.9506 23.8604 25.8643C23.6816 25.7781 23.5217 25.6572 23.39 25.5087L19 20.68V25.5C19 25.7808 18.9212 26.056 18.7724 26.2943C18.6237 26.5325 18.4111 26.7242 18.1588 26.8475C17.9065 26.9709 17.6247 27.0209 17.3453 26.992C17.066 26.963 16.8004 26.8562 16.5788 26.6837L7.985 20H2.5C1.83696 20 1.20107 19.7366 0.732233 19.2678C0.263392 18.7989 0 18.163 0 17.5V9.49999C0 8.83695 0.263392 8.20106 0.732233 7.73222C1.20107 7.26338 1.83696 6.99999 2.5 6.99999H6.56375L3.39 3.50874C3.12806 3.21347 2.99306 2.82685 3.01426 2.43272C3.03547 2.03858 3.21117 1.66868 3.50327 1.40322C3.79538 1.13775 4.18035 0.998126 4.57471 1.0146C4.96908 1.03108 5.34106 1.20233 5.61 1.49124L25.61 23.4912ZM16 17.375L9.29125 9.99999H3V17H8.5C8.83371 17 9.1579 17.1113 9.42125 17.3162L16 22.4325V17.375ZM14.2313 5.93749L16 4.56249V9.36249C16 9.76031 16.158 10.1418 16.4393 10.4231C16.7206 10.7045 17.1022 10.8625 17.5 10.8625C17.8978 10.8625 18.2794 10.7045 18.5607 10.4231C18.842 10.1418 19 9.76031 19 9.36249V1.49999C19 1.21915 18.9212 0.94395 18.7724 0.705716C18.6237 0.467481 18.4111 0.27578 18.1588 0.15243C17.9065 0.0290808 17.6247 -0.0209623 17.3453 0.00799692C17.066 0.0369562 16.8004 0.143755 16.5788 0.316236L12.39 3.57499C12.2294 3.69404 12.0943 3.84398 11.9925 4.01601C11.8907 4.18803 11.8243 4.37866 11.7973 4.5767C11.7702 4.77473 11.783 4.97619 11.8349 5.16922C11.8867 5.36225 11.9767 5.54296 12.0994 5.70074C12.2221 5.85852 12.3751 5.99019 12.5494 6.088C12.7237 6.18581 12.9158 6.2478 13.1144 6.27032C13.313 6.29284 13.5141 6.27544 13.7059 6.21915C13.8977 6.16285 14.0763 6.06878 14.2313 5.94249V5.93749ZM22.5 16.3675C22.8978 16.3675 23.2794 16.2095 23.5607 15.9281C23.842 15.6468 24 15.2653 24 14.8675V10.5C24 10.1022 23.842 9.72063 23.5607 9.43933C23.2794 9.15802 22.8978 8.99999 22.5 8.99999C22.1022 8.99999 21.7206 9.15802 21.4393 9.43933C21.158 9.72063 21 10.1022 21 10.5V14.8675C21 15.2653 21.158 15.6468 21.4393 15.9281C21.7206 16.2095 22.1022 16.3675 22.5 16.3675Z" fill="white" fill-opacity="0.95"/>
</g>
</svg>
