<svg width="32" height="32" viewBox="0 0 32 32" fill="none" xmlns="http://www.w3.org/2000/svg">
<path d="M15.6475 19.6175C16.9038 18.5615 17.8049 17.1447 18.2287 15.5592C18.6524 13.9736 18.5783 12.2961 18.0163 10.7542C17.4544 9.21221 16.4317 7.8804 15.0872 6.93934C13.7426 5.99828 12.1411 5.49353 10.5 5.49353C8.85877 5.49353 7.2573 5.99828 5.91273 6.93934C4.56816 7.8804 3.54554 9.21221 2.98357 10.7542C2.4216 12.2961 2.34747 13.9736 2.77123 15.5592C3.19499 17.1447 4.09613 18.5615 5.35245 19.6175C3.39068 20.5046 1.6906 21.8822 0.416201 23.6175C0.180821 23.9383 0.0824981 24.3394 0.142861 24.7326C0.203225 25.1259 0.41733 25.479 0.738076 25.7144C1.05882 25.9498 1.45994 26.0481 1.85318 25.9877C2.24642 25.9274 2.59957 25.7133 2.83495 25.3925C3.71713 24.1877 4.8709 23.2078 6.20267 22.5323C7.53443 21.8568 9.00668 21.5048 10.5 21.5048C11.9932 21.5048 13.4655 21.8568 14.7972 22.5323C16.129 23.2078 17.2828 24.1877 18.165 25.3925C18.4003 25.7134 18.7535 25.9277 19.1469 25.9882C19.5403 26.0487 19.9415 25.9504 20.2625 25.715C20.5834 25.4796 20.7976 25.1264 20.8581 24.7331C20.9186 24.3397 20.8203 23.9384 20.5849 23.6175C19.3098 21.8824 17.6094 20.5049 15.6475 19.6175ZM5.49995 13.5C5.49995 12.5111 5.7932 11.5444 6.3426 10.7222C6.89201 9.89992 7.6729 9.25906 8.58653 8.88062C9.50016 8.50218 10.5055 8.40317 11.4754 8.59609C12.4453 8.78902 13.3362 9.26522 14.0355 9.96449C14.7347 10.6637 15.211 11.5547 15.4039 12.5246C15.5968 13.4945 15.4978 14.4998 15.1193 15.4134C14.7409 16.3271 14.1 17.108 13.2778 17.6574C12.4556 18.2068 11.4889 18.5 10.5 18.5C9.17387 18.5 7.9021 17.9732 6.96442 17.0356C6.02674 16.0979 5.49995 14.8261 5.49995 13.5ZM31.2625 25.7088C31.1037 25.8255 30.9234 25.9097 30.7321 25.9567C30.5407 26.0037 30.3419 26.0126 30.1471 25.9827C29.9524 25.9529 29.7654 25.885 29.5968 25.7829C29.4283 25.6807 29.2815 25.5464 29.165 25.3875C28.2806 24.185 27.1264 23.2068 25.7951 22.5316C24.4638 21.8564 22.9927 21.5031 21.5 21.5C21.1021 21.5 20.7206 21.342 20.4393 21.0607C20.158 20.7794 20 20.3978 20 20C20 19.6022 20.158 19.2207 20.4393 18.9394C20.7206 18.6581 21.1021 18.5 21.5 18.5C22.2106 18.4988 22.9129 18.346 23.5598 18.052C24.2068 17.7579 24.7837 17.3293 25.252 16.7947C25.7203 16.2602 26.0693 15.6319 26.2756 14.9519C26.482 14.2718 26.541 13.5556 26.4487 12.8509C26.3565 12.1463 26.1151 11.4694 25.7406 10.8654C25.3661 10.2614 24.8672 9.74412 24.277 9.34814C23.6869 8.95215 23.0191 8.68651 22.3183 8.56893C21.6174 8.45135 20.8995 8.48454 20.2125 8.66627C20.0206 8.72178 19.8195 8.73841 19.6211 8.71518C19.4227 8.69194 19.231 8.62931 19.0571 8.53097C18.8832 8.43262 18.7307 8.30053 18.6086 8.14246C18.4865 7.98439 18.3971 7.80351 18.3459 7.61045C18.2946 7.41739 18.2824 7.21603 18.31 7.01819C18.3375 6.82034 18.4044 6.63 18.5065 6.45834C18.6087 6.28667 18.7441 6.13713 18.9048 6.01851C19.0655 5.89988 19.2483 5.81455 19.4424 5.76752C21.1993 5.30202 23.0622 5.44859 24.7247 6.18311C26.3871 6.91762 27.7498 8.1963 28.5886 9.80863C29.4273 11.421 29.6921 13.2708 29.3393 15.0537C28.9865 16.8366 28.0371 18.4462 26.6474 19.6175C28.6092 20.5046 30.3093 21.8822 31.5837 23.6175C31.8174 23.9378 31.9148 24.3376 31.8546 24.7294C31.7944 25.1213 31.5815 25.4734 31.2625 25.7088Z" fill="white" fill-opacity="0.95"/>
</svg>
